<svg width="164" height="37" viewBox="0 0 164 37" fill="none" xmlns="http://www.w3.org/2000/svg">
<path d="M1.18287 25.4454C1.65874 25.4454 1.95786 25.6289 2.08022 25.996C2.20259 26.3631 2.26377 26.9681 2.26377 27.8111C2.26377 28.6541 2.37934 29.4427 2.61048 30.1769C2.84161 30.9111 3.16112 31.5297 3.56901 32.0327C4.39838 33.0389 5.54726 33.5419 7.01566 33.5419C8.48405 33.5419 9.65332 33.0049 10.5235 31.9308C11.3936 30.8431 11.8287 29.2863 11.8287 27.2605C11.8287 24.5548 10.6798 22.1483 8.38208 20.0409C7.72946 19.4426 7.05644 18.8512 6.36304 18.2666C5.68322 17.6819 5.01701 17.0769 4.36439 16.4515C3.71177 15.826 3.12713 15.1326 2.61048 14.3712C1.48199 12.6989 0.917746 10.7954 0.917746 8.66082C0.917746 6.47183 1.56357 4.70432 2.85521 3.35829C4.13325 2.02586 5.73761 1.35964 7.66827 1.35964C9.32701 1.35964 10.6866 1.91709 11.7471 3.03198C12.93 4.31003 13.4739 6.07754 13.3787 8.33451C13.3651 8.44328 13.3583 8.55885 13.3583 8.68122C13.3719 8.80358 13.3583 9.03472 13.3175 9.37462C13.2903 9.71453 13.1476 10.0204 12.8892 10.2924C12.6445 10.5507 12.3726 10.6799 12.0735 10.6799C11.7879 10.6799 11.5432 10.5507 11.3393 10.2924C11.1353 10.0204 11.0673 9.66694 11.1353 9.23186C11.3121 8.23934 11.4004 7.49155 11.4004 6.98848C11.4004 6.47183 11.3053 5.98236 11.1149 5.52009C10.9382 5.05782 10.6798 4.64993 10.3399 4.29643C9.60574 3.54864 8.654 3.17474 7.48473 3.17474C6.19308 3.17474 5.13938 3.61662 4.3236 4.50037C3.42625 5.4793 2.97757 6.68257 2.97757 8.11017C2.97757 9.53778 3.13393 10.6935 3.44664 11.5772C3.75936 12.4474 4.16724 13.236 4.67031 13.943C5.18696 14.65 5.7716 15.2958 6.42422 15.8804C7.07684 16.4651 7.73626 17.0429 8.40247 17.6139C9.08228 18.185 9.7485 18.7764 10.4011 19.3882C11.0537 19.9865 11.6384 20.6527 12.155 21.3869C13.2835 23.0456 13.8478 24.9559 13.8478 27.1177C13.8478 29.6466 13.1951 31.6656 11.8899 33.1748C10.5983 34.6704 8.87154 35.4182 6.70974 35.4182C4.6975 35.4182 3.05915 34.6432 1.7947 33.0933C0.598234 31.6385 0 30.0001 0 28.1782C0 26.3563 0.394291 25.4454 1.18287 25.4454Z" fill="#885DF1"/>
<path d="M28.7171 27.5868L28.8599 33.5215C28.8599 34.1334 28.5676 34.548 27.9829 34.7656C27.8334 34.82 27.6566 34.8472 27.4527 34.8472C27.2488 34.8472 27.0312 34.7384 26.8001 34.5209C26.5689 34.2897 26.4738 33.9362 26.5146 33.4603C26.5553 32.9709 26.6029 32.4882 26.6573 32.0123C26.7117 31.5365 26.7593 31.0538 26.8001 30.5644C26.8953 29.4223 26.9428 28.5317 26.9428 27.8927C26.9428 27.2537 26.936 26.703 26.9224 26.2407C26.9088 25.7785 26.8885 25.3026 26.8613 24.8131C26.8477 24.4189 26.8273 23.977 26.8001 23.4875C26.3514 22.3454 25.8551 21.1286 25.3113 19.8369C24.6179 18.151 23.8973 16.3971 23.1495 14.5752C20.0767 7.17883 18.5404 3.17474 18.5404 2.56291C18.5404 2.22301 18.6423 1.95108 18.8463 1.74714C19.0502 1.54319 19.3086 1.43442 19.6213 1.42083C19.9476 1.40723 20.1991 1.516 20.3759 1.74714C20.5526 1.96468 20.8109 2.67168 21.1508 3.86815C21.5043 5.06462 22.021 6.60779 22.7008 8.49767C23.3806 10.3739 24.0672 12.1686 24.7606 13.8818C25.6716 16.1523 26.6981 18.5657 27.8402 21.1218C28.0441 20.5643 28.2617 19.9729 28.4928 19.3475C28.8871 18.3277 29.2882 17.2604 29.6961 16.1455C30.1176 15.0171 30.539 13.8682 30.9605 12.6989C31.3956 11.516 31.8103 10.3604 32.2046 9.23186C33.1563 6.47183 33.7613 4.63634 34.0197 3.72539C34.278 2.80085 34.4955 2.16862 34.6723 1.82871C34.849 1.47521 35.1142 1.29846 35.4677 1.29846C36.1203 1.29846 36.4466 1.61797 36.4466 2.257C36.4466 2.74646 35.9571 4.25564 34.9782 6.78454C34.0129 9.31344 33.3875 10.979 33.1019 11.7812C32.83 12.5697 32.5649 13.3175 32.3065 14.0245C32.0482 14.7179 31.7695 15.4657 31.4704 16.2679C31.1713 17.0565 30.8586 17.8723 30.5322 18.7152C30.2195 19.5446 29.9204 20.34 29.6349 21.1014C29.3086 21.9171 29.0367 22.6038 28.8191 23.1612C28.7511 25.5813 28.7171 27.0565 28.7171 27.5868Z" fill="#885DF1"/>
<path d="M57.5974 2.84843C57.5159 9.61936 57.4751 14.412 57.4751 17.2264C57.4751 20.0273 57.4751 22.0871 57.4751 23.4059C57.4887 24.7112 57.5023 25.9552 57.5159 27.1381C57.5431 29.6398 57.5703 31.3529 57.5974 32.2775C57.6382 33.1884 57.6178 33.7323 57.5363 33.909C57.4547 34.0858 57.3459 34.2353 57.21 34.3577C56.6525 34.8608 56.0611 34.9083 55.4356 34.5005C55.1909 34.3373 55.0142 34.0926 54.9054 33.7663C53.7089 30.2584 52.2677 26.4515 50.5818 22.3454C48.8959 18.2258 47.7198 15.3162 47.0536 13.6166C45.8435 10.5303 44.7898 7.70229 43.8924 5.1326L44.1576 33.5827C44.1576 34.0042 44.0488 34.3169 43.8313 34.5209C43.6137 34.7248 43.3622 34.8268 43.0767 34.8268C42.8047 34.8268 42.5464 34.718 42.3017 34.5005C42.0705 34.2693 41.9618 33.9294 41.9754 33.4807C42.1113 29.7418 42.1793 25.4794 42.1793 20.6935V8.59964C42.1793 6.49222 42.1657 4.67713 42.1385 3.15435C42.1385 2.65129 42.2881 2.27059 42.5872 2.01226C42.8999 1.74034 43.2262 1.60438 43.5661 1.60438C44.3275 1.60438 44.8306 1.96468 45.0753 2.68528C45.32 3.40588 45.6668 4.37801 46.1154 5.60167C46.5641 6.81173 47.0672 8.16456 47.6246 9.66014C48.1821 11.1421 48.7803 12.7193 49.4193 14.3916C50.0583 16.0504 50.6974 17.7091 51.3364 19.3679C51.9754 21.013 52.594 22.6106 53.1923 24.1605C53.7905 25.7105 54.3344 27.1177 54.8238 28.3822C55.3133 29.6466 55.728 30.7275 56.0679 31.6249C56.0815 31.6656 56.0951 31.6996 56.1087 31.7268C55.9999 29.062 55.9115 26.1592 55.8435 23.0184C55.7756 19.1979 55.7144 16.3359 55.66 14.4324C55.6192 12.5289 55.5716 10.6051 55.5172 8.66082C55.4764 6.70296 55.422 4.7655 55.3541 2.84843C55.3541 2.41335 55.4696 2.09384 55.7008 1.8899C55.9455 1.67236 56.2106 1.56359 56.4962 1.56359C56.7817 1.56359 57.0332 1.67236 57.2507 1.8899C57.4819 2.09384 57.5974 2.41335 57.5974 2.84843Z" fill="#885DF1"/>
<path d="M103.596 25.8125C103.705 29.0892 103.787 31.6113 103.841 33.3788C103.855 33.841 103.739 34.1877 103.494 34.4189C103.263 34.6364 103.005 34.7452 102.719 34.7452C102.447 34.7452 102.203 34.6432 101.985 34.4393C101.768 34.2217 101.659 33.8818 101.659 33.4196V28.8104L101.638 22.4882V16.8186C101.638 13.1204 101.604 10.7682 101.536 9.76212C101.482 8.75599 101.441 7.99461 101.414 7.47795C101.387 6.96129 101.353 6.43784 101.312 5.90758C101.271 5.36374 101.23 4.83348 101.19 4.31683C101.162 3.80017 101.196 3.44667 101.292 3.25632C101.4 3.06597 101.53 2.93001 101.679 2.84843C101.829 2.75326 101.985 2.69208 102.148 2.66488C102.311 2.63769 102.658 2.55611 103.188 2.42015C104.861 2.01226 106.343 1.80832 107.634 1.80832C108.926 1.80832 110.02 1.97148 110.918 2.29778C111.815 2.62409 112.583 3.12036 113.222 3.78657C114.582 5.18698 115.262 7.18563 115.262 9.78251C115.262 13.3175 114.025 16.5602 111.55 19.5106C109.551 21.89 106.9 23.9906 103.596 25.8125ZM103.535 23.875C110.102 20.3128 113.385 15.6765 113.385 9.96606C113.385 6.82533 112.298 4.80629 110.122 3.90894C108.504 3.24272 106.54 3.30391 104.228 4.09249C103.957 4.18766 103.698 4.28283 103.453 4.37801C103.358 6.75735 103.311 9.20467 103.311 11.72V17.8791C103.311 18.1374 103.317 18.3889 103.331 18.6337C103.345 18.8784 103.351 19.1435 103.351 19.429C103.365 19.701 103.379 20.0613 103.392 20.5099C103.419 20.945 103.447 21.4957 103.474 22.1619C103.487 22.6377 103.508 23.2088 103.535 23.875Z" fill="#885DF1"/>
<path d="M123.829 1.82871C124.21 1.82871 126.657 1.77433 131.171 1.66556C131.797 1.66556 132.225 1.90349 132.456 2.37936C132.511 2.51532 132.538 2.67168 132.538 2.84843C132.538 3.02518 132.436 3.20873 132.232 3.39908C132.028 3.57583 131.647 3.65741 131.09 3.64381C130.532 3.63022 129.988 3.60982 129.458 3.58263C128.941 3.55544 128.459 3.53504 128.01 3.52145C127.208 3.49425 126.521 3.48746 125.95 3.50105C125.842 6.62818 125.787 10.0204 125.787 13.6778C125.787 17.5935 125.787 20.2788 125.787 21.7336C125.801 23.1748 125.821 24.5548 125.848 25.8736C125.889 29.2455 125.93 31.7472 125.971 33.3788C125.984 33.841 125.876 34.1877 125.644 34.4189C125.427 34.6364 125.182 34.7452 124.91 34.7452C124.652 34.7452 124.394 34.6432 124.135 34.4393C123.89 34.2217 123.768 33.9022 123.768 33.4807L123.748 30.8091L123.952 11.3325C123.952 7.70229 123.904 5.09181 123.809 3.50105C123.088 3.48746 122.232 3.51465 121.239 3.58263C120.07 3.66421 119.22 3.72539 118.69 3.76618C118.173 3.79337 117.806 3.70499 117.589 3.50105C117.371 3.29711 117.262 3.06597 117.262 2.80764C117.262 2.53572 117.371 2.27059 117.589 2.01226C117.806 1.75394 118.153 1.63837 118.629 1.66556C119.118 1.67916 119.54 1.69275 119.893 1.70635C120.247 1.71995 120.553 1.73354 120.811 1.74714C121.083 1.76073 121.321 1.77433 121.525 1.78793C121.729 1.80152 121.933 1.81512 122.137 1.82871C122.354 1.82871 122.599 1.82871 122.871 1.82871H123.829Z" fill="#885DF1"/>
<path d="M140.045 6.07074C140.031 6.64178 140.018 7.3012 140.004 8.04899C140.004 8.78319 140.004 11.7608 140.004 16.9817C140.004 22.2027 140.086 27.6955 140.249 33.4603C140.262 33.8954 140.133 34.2285 139.861 34.4597C139.603 34.6908 139.324 34.8064 139.025 34.8064C138.739 34.8064 138.481 34.7044 138.25 34.5005C138.032 34.2965 137.937 33.841 137.964 33.134C137.992 32.427 138.019 31.4481 138.046 30.1973C138.073 28.9464 138.1 27.614 138.128 26.2C138.182 23.3991 138.209 20.7887 138.209 18.3685C138.209 15.9348 138.202 14.0449 138.189 12.6989C138.189 11.3393 138.175 10.0884 138.148 8.94634C138.107 6.41744 138.032 4.3984 137.924 2.88922C137.883 2.45414 137.958 2.13463 138.148 1.93069C138.352 1.71315 138.61 1.60438 138.923 1.60438C139.236 1.60438 139.528 1.71315 139.8 1.93069C140.072 2.13463 140.194 2.48813 140.167 2.99119C140.153 3.49425 140.133 3.99052 140.106 4.47998C140.092 4.96944 140.072 5.4997 140.045 6.07074Z" fill="#885DF1"/>
<path d="M162.174 1.99187C162.297 2.14143 162.372 2.32498 162.399 2.54252C162.426 2.76006 162.276 3.25632 161.95 4.0313C161.624 4.79269 160.917 6.15232 159.829 8.11017C158.823 9.91847 157.661 12.0259 156.342 14.4324C157.157 16.7982 158.075 19.2319 159.095 21.7336C160.183 24.4257 160.958 26.3427 161.42 27.4848C162.521 30.2176 163.201 31.8968 163.459 32.5222C163.718 33.134 163.833 33.5487 163.806 33.7663C163.779 33.9702 163.711 34.1538 163.602 34.3169C163.371 34.6432 163.099 34.8064 162.786 34.8064C162.215 34.8064 161.821 34.5277 161.603 33.9702C158.707 25.6357 156.586 19.7689 155.24 16.3699C153.622 19.4018 152.229 21.8424 151.06 23.6915C151.06 27.7159 151.087 30.9722 151.141 33.4603C151.155 33.8954 151.032 34.2285 150.774 34.4597C150.529 34.6908 150.257 34.8064 149.958 34.8064C149.659 34.8064 149.387 34.7044 149.143 34.5005C148.911 34.2965 148.809 33.8206 148.837 33.0729C148.864 32.3115 148.898 31.2238 148.939 29.8098C148.979 28.3958 149.02 26.8866 149.061 25.2822C149.143 22.0735 149.183 19.2115 149.183 16.6962C149.183 14.1673 149.176 12.3386 149.163 11.2101C149.149 10.068 149.129 9.02792 149.102 8.08978C149.034 6.49902 148.911 4.7859 148.735 2.9504C148.694 2.51532 148.803 2.19581 149.061 1.99187C149.333 1.77433 149.632 1.66556 149.958 1.66556C150.298 1.66556 150.604 1.77433 150.876 1.99187C151.162 2.19581 151.298 2.51532 151.284 2.9504C151.134 6.44464 151.06 12.3862 151.06 20.7751C154.377 15.119 157.069 9.8301 159.136 4.90826C159.544 3.94293 159.836 3.20193 160.013 2.68528C160.203 2.15502 160.393 1.82192 160.584 1.68595C160.788 1.54999 160.992 1.48201 161.196 1.48201C161.4 1.48201 161.583 1.5296 161.746 1.62477C161.923 1.70635 162.066 1.82871 162.174 1.99187Z" fill="#885DF1"/>
<g clip-path="url(#clip0_221_2)">
<mask id="mask0_221_2" style="mask-type:luminance" maskUnits="userSpaceOnUse" x="54" y="-7" width="50" height="50">
<path d="M103.501 -6.24109H54.8198V42.4398H103.501V-6.24109Z" fill="white"/>
</mask>
<g mask="url(#mask0_221_2)">
<path opacity="0.0229128" fill-rule="evenodd" clip-rule="evenodd" d="M54.3672 -6.69385H103.954V42.8925H54.3672V-6.69385ZM55.7594 -5.30159V41.5002H102.561V-5.30159H55.7594Z" fill="#2B2B2B"/>
<path fill-rule="evenodd" clip-rule="evenodd" d="M91.3068 30.2019L85.9918 25.3028C85.662 24.9991 85.6454 24.485 85.9564 24.1613C86.2673 23.8383 86.7924 23.8229 87.123 24.1274L92.438 29.0257C92.7679 29.3301 92.7836 29.8435 92.4727 30.1672C92.1625 30.4909 91.6374 30.5064 91.3068 30.2019Z" fill="#885DF1"/>
<path fill-rule="evenodd" clip-rule="evenodd" d="M71.0005 11.6081L65.6854 6.70976C65.3548 6.40531 65.3391 5.89197 65.65 5.56824C65.9609 5.24451 66.4852 5.22908 66.8158 5.53353L72.1309 10.4326C72.4615 10.7371 72.4772 11.2504 72.1663 11.5741C71.8554 11.8971 71.3303 11.9125 71.0005 11.6081Z" fill="#885DF1"/>
<path fill-rule="evenodd" clip-rule="evenodd" d="M66.752 30.1411L71.6302 24.8242C71.9332 24.4943 72.4575 24.4666 72.7952 24.7633C73.1329 25.0601 73.1604 25.5734 72.8574 25.9041L67.9792 31.221C67.6761 31.5508 67.1519 31.5786 66.815 31.2818C66.4773 30.9851 66.449 30.4718 66.752 30.1411Z" fill="#885DF1"/>
<path fill-rule="evenodd" clip-rule="evenodd" d="M85.2648 9.83113L90.143 4.51431C90.446 4.1844 90.9703 4.15665 91.308 4.45341C91.6449 4.75016 91.6732 5.2635 91.3702 5.59415L86.492 10.911C86.189 11.2409 85.6647 11.2686 85.327 10.9719C84.9901 10.6752 84.9617 10.1618 85.2648 9.83113Z" fill="#885DF1"/>
<path fill-rule="evenodd" clip-rule="evenodd" d="M78.5898 35.1168L78.5064 27.9701C78.5017 27.5262 78.8685 27.1585 79.3219 27.1539C79.7754 27.1485 80.1508 27.5077 80.1563 27.9517L80.2398 35.0983C80.2445 35.543 79.8777 35.91 79.4243 35.9154C78.9709 35.9208 78.5954 35.5615 78.5898 35.1168Z" fill="#885DF1"/>
<path fill-rule="evenodd" clip-rule="evenodd" d="M78.1816 7.89712L78.0982 0.75047C78.0927 0.305721 78.4595 -0.0611866 78.9129 -0.0665902C79.3663 -0.0719938 79.7418 0.287222 79.7473 0.731971L79.8308 7.87862C79.8363 8.32259 79.4687 8.69027 79.0153 8.6949C78.5618 8.7003 78.1864 8.34109 78.1816 7.89712Z" fill="#885DF1"/>
<path fill-rule="evenodd" clip-rule="evenodd" d="M61.6203 17.1058L68.9199 17.129C69.3733 17.1305 69.7432 17.4951 69.7416 17.9391C69.7409 18.383 69.3686 18.7453 68.9143 18.7438L61.6156 18.7214C61.1614 18.7199 60.7914 18.3553 60.793 17.9113C60.7946 17.4666 61.1669 17.1043 61.6203 17.1058Z" fill="#885DF1"/>
<path fill-rule="evenodd" clip-rule="evenodd" d="M89.423 17.1047L96.7226 17.1271C97.176 17.1286 97.546 17.4932 97.5444 17.9372C97.5428 18.3819 97.1705 18.7442 96.7171 18.7427L89.4175 18.7195C88.9641 18.718 88.5942 18.3534 88.5957 17.9094C88.5973 17.4655 88.9696 17.1032 89.423 17.1047Z" fill="#885DF1"/>
<path fill-rule="evenodd" clip-rule="evenodd" d="M78.9646 10.4364C74.7484 10.4364 71.3179 13.7955 71.3179 17.9238C71.3179 22.0528 74.7484 25.4119 78.9646 25.4119C83.1815 25.4119 86.612 22.0528 86.612 17.9238C86.612 13.7955 83.1815 10.4364 78.9646 10.4364ZM85.0495 17.9239C85.0495 21.2089 82.3196 23.882 78.9647 23.882C75.6097 23.882 72.8805 21.2089 72.8805 17.9239C72.8805 14.6388 75.6097 11.9658 78.9647 11.9658C82.3196 11.9658 85.0495 14.6388 85.0495 17.9239Z" fill="#885DF1"/>
</g>
</g>
<defs>
<clipPath id="clip0_221_2">
<rect width="36.1986" height="36.1986" fill="white" transform="translate(61.061)"/>
</clipPath>
</defs>
</svg>
